# xmcd CD database file
#
# Track frame offsets:
#	150
#	13716
#	33730
#	56024
#	64924
#	77135
#	96635
#	114480
#	139701
#	155968
#	169912
#	181442
#	195738
#	209814
#
# Disc length: 2972 seconds
#
# Revision: 1
# Processed by: cddbd v1.5.2PL0 Copyright (c) Steve Scherf et al.
# Submitted via: CDex 1.70beta2
#
DISCID=da0b9a0e
DTITLE=Outlaw Country - Live From Austin, TX
DYEAR=2006
DGENRE=Country
TTITLE0=Fighter (Kris Kristofferson)
TTITLE1=I'd Had Been Out Of Jail (Waylon Jennings)
TTITLE2=Just One Love (Kimmie Rhodes and Willie Nelson)
TTITLE3=Billy Joe Shaver - First and Last Time
TTITLE4=We Don't Run (Willie Nelson)
TTITLE5=Promise (Kris Kristofferson)
TTITLE6=I Do Believe (Waylon Jennings)
TTITLE7=Espiritu Santo Bay (Kimmie Rhodes)
TTITLE8=You Just Can't Beat Jesus Christ (Billy Joe Shaver)
TTITLE9=Too Sick To Pray (Willie Nelson)
TTITLE10=Pilgrims Progress (Kris Kristofferson)
TTITLE11=Just Watch Your Mama And Me (Waylon Jennings)
TTITLE12=Lines (Kimmie Rhodes and Waylon Jennings)
TTITLE13=On The Road Again (Willie Nelson)
EXTD=YEAR: 2006
EXTT0=
EXTT1=
EXTT2=
EXTT3=
EXTT4=
EXTT5=
EXTT6=
EXTT7=
EXTT8=
EXTT9=
EXTT10=
EXTT11=
EXTT12=
EXTT13=
PLAYORDER=
